<svg width="1920" height="1080" viewBox="0 0 1920 1080" xmlns="http://www.w3.org/2000/svg"><rect width="1920" height="1080" fill="#df6688"/><path d="M 0,1080 C 0,1080 0,90 0,90 C -3.8229330282605023,106.5155951293566 -7.645866056521005,123.0311902587132 5,123 C 17.645866056521005,122.9688097412868 46.76053119782351,106.39083409450382 69,102 C 91.23946880217649,97.60916590549618 106.60374126522692,105.40547336327161 148,105 C 189.39625873477308,104.59452663672839 256.82450374126887,95.98727245240978 296,89 C 335.17549625873113,82.01272754759022 346.09824376969766,76.64543682708923 344,84 C 341.90175623030234,91.35456317291077 326.7825211799404,111.43098023923326 340,123 C 353.2174788200596,134.56901976076674 394.77167151054084,137.63064221597764 441,122 C 487.22832848945916,106.36935778402236 538.1307927778963,72.04645089685611 558,66 C 577.8692072221037,59.953549103143885 566.7051573778741,82.1835541965979 561,86 C 555.2948426221259,89.8164458034021 555.0485777106071,75.21933231675229 602,80 C 648.9514222893929,84.78066768324771 743.1005317796977,108.93911653639294 772,116 C 800.8994682203023,123.06088346360706 764.5492951706019,113.02420153767594 752,106 C 739.4507048293981,98.97579846232406 750.7022875378949,94.9640773129033 793,94 C 835.2977124621051,93.0359226870967 908.6415546778184,95.11948921071085 920,96 C 931.3584453221816,96.88051078928915 880.7314937508314,96.55796584425333 893,92 C 905.2685062491686,87.44203415574667 980.4324703188554,78.64864741227588 1015,77 C 1049.5675296811446,75.35135258772412 1043.5386249737462,80.84744450664314 1067,82 C 1090.4613750262538,83.15255549335686 1143.4130297861598,79.9615745611515 1159,81 C 1174.5869702138402,82.0384254388485 1152.8092558816145,87.30625724875084 1170,83 C 1187.1907441183855,78.69374275124916 1243.349946687382,64.81339644384508 1279,69 C 1314.650053312618,73.18660355615492 1329.790957368858,95.44015697586883 1366,92 C 1402.209042631142,88.55984302413117 1459.4862238371854,59.42597565267958 1465,57 C 1470.5137761628146,54.57402434732042 1424.2641472823996,78.85594041341284 1443,78 C 1461.7358527176004,77.14405958658716 1545.4571870332165,51.15026269366902 1597,58 C 1648.5428129667835,64.84973730633098 1667.9071045847338,104.54300881191105 1662,105 C 1656.0928954152662,105.45699118808895 1624.9143946278475,66.67770205868682 1640,57 C 1655.0856053721525,47.32229794131318 1716.435316903876,66.74618295334167 1749,81 C 1781.564683096124,95.25381704665833 1785.3443377566489,104.33756612794646 1796,100 C 1806.6556622433511,95.66243387205354 1824.1873320695286,77.90355253487243 1846,74 C 1867.8126679304714,70.09644746512757 1893.9063339652357,80.04822373256378 1920,90 C 1920,90 1920,1080 1920,1080 Z" fill="#3d1053" opacity="0.049999999999999996"/><path d="M 0,1080 C 0,1080 0,180 0,180 C 46.02685454392055,179.98692177042037 92.0537090878411,179.97384354084073 100,188 C 107.9462909121589,196.02615645915927 77.81201819255612,212.0915476070575 80,209 C 82.18798180744388,205.9084523929425 116.69821814193443,183.65996603092938 140,167 C 163.30178185806557,150.34003396907062 175.3951092397062,139.26858826922495 199,150 C 222.6048907602938,160.73141173077505 257.721344899241,193.26568089217082 303,201 C 348.278655100759,208.73431910782918 403.71951116332986,191.6686881620918 433,187 C 462.28048883667014,182.3313118379082 465.4006104474398,190.0595664594619 477,190 C 488.5993895525602,189.9404335405381 508.67804704691093,182.09304600006055 520,183 C 531.3219529530891,183.90695399993945 533.8872013649161,193.56824954029582 569,194 C 604.1127986350839,194.43175045970418 671.7731474934243,185.63395583875604 681,180 C 690.2268525065757,174.36604416124396 641.0202086613866,171.89592710468 656,171 C 670.9797913386134,170.10407289532 750.1460178610291,170.78233574252397 773,174 C 795.8539821389709,177.21766425747603 762.395719894497,182.97472992522412 781,183 C 799.604280105503,183.02527007477588 870.2711025609827,177.31874455657967 926,174 C 981.7288974390173,170.68125544342033 1022.5198698615714,169.7502918484572 1025,170 C 1027.4801301384286,170.2497081515428 991.6494179927328,171.6800880495914 988,165 C 984.3505820072672,158.3199119504086 1012.8824581674976,143.5293559531772 1048,146 C 1083.1175418325024,148.4706440468228 1124.8207493372774,168.20248813769973 1151,180 C 1177.1792506627226,191.79751186230027 1187.8345444833933,195.66069149602382 1194,196 C 1200.1654555166067,196.33930850397618 1201.8410727291493,193.15474587820498 1228,190 C 1254.1589272708507,186.84525412179502 1304.80116460001,183.7203249911563 1339,181 C 1373.19883539999,178.2796750088437 1390.9542688708116,175.96395415716987 1420,169 C 1449.0457311291884,162.03604584283013 1489.3817599167437,150.42385838016418 1511,154 C 1532.6182400832563,157.57614161983582 1535.5186914622134,176.34061232217337 1530,190 C 1524.4813085377866,203.65938767782663 1510.5434742344032,212.21369233114228 1544,204 C 1577.4565257655968,195.78630766885772 1658.3074116001735,170.80461835325744 1688,165 C 1717.6925883998265,159.19538164674256 1696.2268793649023,172.56783425582788 1708,175 C 1719.7731206350977,177.43216574417212 1764.7850709402185,168.92404462343094 1792,167 C 1819.2149290597815,165.07595537656906 1828.6328368742231,169.7359872504483 1847,173 C 1865.3671631257769,176.2640127495517 1892.6835815628883,178.13200637477587 1920,180 C 1920,180 1920,1080 1920,1080 Z" fill="#3d1053" opacity="0.09999999999999999"/><path d="M 0,1080 C 0,1080 0,270 0,270 C -19.495057054859483,283.30343717227953 -38.99011410971897,296.60687434455906 2,299 C 42.99011410971897,301.39312565544094 144.4653993840164,292.8759397940432 169,292 C 193.5346006159836,291.1240602059568 141.1285165736533,297.8893664792682 142,286 C 142.8714834263467,274.1106335207318 197.02053432137043,243.5665942888842 218,244 C 238.97946567862957,244.4334057111158 226.78934614086506,275.84425636519495 270,284 C 313.21065385913494,292.15574363480505 411.8220811151694,277.05638025033596 448,272 C 484.1779188848306,266.94361974966404 457.9223293984571,271.9302226334613 446,278 C 434.0776706015429,284.0697773665387 436.4886012910019,291.22272921581873 450,279 C 463.5113987089981,266.77727078418127 488.12326543753545,235.1788605032638 538,240 C 587.8767345624645,244.8211394967362 663.0183369588561,286.0618287711261 677,300 C 690.9816630411439,313.9381712288739 643.8033867270398,300.5738244122316 657,293 C 670.1966132729602,285.4261755877684 743.7681161329845,283.6428735799476 784,283 C 824.2318838670155,282.3571264200524 831.1241487410224,282.85468126797815 829,276 C 826.8758512589776,269.14531873202185 815.7352889029262,254.9384013481398 857,254 C 898.2647110970738,253.0615986518602 991.9346956472723,265.3917133394628 1014,271 C 1036.0653043527277,276.6082866605372 986.5259285079836,275.49474529400896 998,268 C 1009.4740714920164,260.50525470599104 1081.9615903207934,246.62930548450112 1129,256 C 1176.0384096792066,265.3706945154989 1197.6277102088425,297.98803276798634 1199,295 C 1200.3722897911575,292.01196723201366 1181.5275688438355,253.41856344355367 1177,246 C 1172.4724311561645,238.58143655644633 1182.2620144158147,262.33771345779905 1218,272 C 1253.7379855841853,281.66228654220095 1315.4243734929048,277.23058272525 1345,275 C 1374.5756265070952,272.76941727475 1372.0404916125653,272.7399556412008 1386,275 C 1399.9595083874347,277.2600443587992 1430.413660056834,281.8095947099466 1438,281 C 1445.586339943166,280.1904052900534 1430.3048681600985,274.0216655190127 1467,272 C 1503.6951318399015,269.9783344809873 1592.3668673027712,272.1037432140025 1647,271 C 1701.6331326972288,269.8962567859975 1722.2276626288153,265.56336162497723 1725,264 C 1727.7723373711847,262.43663837502277 1712.7224821819673,263.6428102860886 1734,273 C 1755.2775178180327,282.3571897139114 1812.8824086433162,299.8653972306684 1853,302 C 1893.1175913566838,304.1346027693316 1915.7478832447669,290.8956007912376 1924,283 C 1932.2521167552331,275.1043992087624 1926.1260583776166,272.5521996043812 1920,270 C 1920,270 1920,1080 1920,1080 Z" fill="#3d1053" opacity="0.15"/><path d="M 0,1080 C 0,1080 0,360 0,360 C -4.149754745780623,379.20810974735826 -8.299509491561246,398.41621949471653 7,389 C 22.299509491561246,379.58378050528347 57.048283220464356,341.5432317684923 84,331 C 110.95171677953564,320.4567682315077 130.1063766097038,337.4108534313142 155,345 C 179.8936233902962,352.5891465686858 210.5262103407204,350.8133545062508 253,343 C 295.4737896592796,335.1866454937492 349.78878202741447,321.33572854368254 350,328 C 350.21121797258553,334.66427145631746 296.3186615496217,361.8437313190191 320,363 C 343.6813384503783,364.1562686809809 444.93657177409864,339.28934618024107 474,334 C 503.06342822590136,328.71065381975893 459.935051353984,342.99888396001654 485,346 C 510.064948646016,349.00111603998346 603.3232228099655,340.7151179796926 622,334 C 640.6767771900345,327.2848820203074 584.7720574061537,322.140644121213 587,331 C 589.2279425938463,339.859355878787 649.5885475654194,362.7223055354558 694,375 C 738.4114524345806,387.2776944645442 766.8737523321687,388.97013373696393 789,385 C 811.1262476678313,381.02986626303607 826.9164431059057,371.39715951668865 830,363 C 833.0835568940943,354.60284048331135 823.4604752442082,347.44122819628154 849,348 C 874.5395247557918,348.55877180371846 935.2416559172616,356.8379276981851 981,360 C 1026.7583440827384,363.1620723018149 1057.5729010867453,361.207061010978 1089,366 C 1120.4270989132547,370.792938989022 1152.4667397357573,382.3338282579028 1136,382 C 1119.5332602642427,381.6661717420972 1054.560139970226,369.4576259574111 1089,361 C 1123.439860029774,352.5423740425889 1257.2927003833395,347.83566791245266 1284,343 C 1310.7072996166605,338.16433208754734 1230.2690584964162,333.1997023927782 1217,340 C 1203.7309415035838,346.8002976072218 1257.6310656309952,365.36552251643445 1318,364 C 1378.3689343690048,362.63447748356555 1445.2066789796024,341.33820754148394 1446,336 C 1446.7933210203976,330.66179245851606 1381.5422184505949,341.2816473176297 1405,355 C 1428.4577815494051,368.7183526823703 1540.6244472180178,385.5352031879973 1601,380 C 1661.3755527819822,374.4647968120027 1669.9599926773335,346.57753993038114 1648,345 C 1626.0400073226665,343.42246006961886 1573.535582072648,368.154637090478 1604,381 C 1634.464417927352,393.845362909522 1747.8976790320735,394.8039117077069 1776,380 C 1804.1023209679265,365.1960882922931 1746.8737017990572,334.6297160786943 1757,339 C 1767.1262982009428,343.3702839213057 1844.6075137716978,382.6772239775159 1883,392 C 1921.3924862283022,401.3227760224841 1920.696243114151,380.661388011242 1920,360 C 1920,360 1920,1080 1920,1080 Z" fill="#3d1053" opacity="0.19999999999999998"/><path d="M 0,1080 C 0,1080 0,450 0,450 C 9.86049408638057,464.1601789127774 19.72098817276114,478.32035782555477 42,475 C 64.27901182723886,471.67964217444523 98.976541395336,450.8787476105583 122,437 C 145.023458604664,423.1212523894417 156.37284624589483,416.1646517322119 190,418 C 223.62715375410517,419.8353482677881 279.53207362108463,430.4626454605942 312,441 C 344.46792637891537,451.5373545394058 353.49885926976657,461.9847664254112 359,465 C 364.50114073023343,468.0152335745888 366.47248929984926,463.59828883776123 368,466 C 369.52751070015074,468.40171116223877 370.6111835308363,477.6220782235438 396,472 C 421.3888164691637,466.3779217764562 471.0827765768056,445.9133982680634 523,436 C 574.9172234231944,426.0866017319366 629.057710161941,426.72432870420255 645,430 C 660.942289838059,433.27567129579745 638.6863827754302,439.1892869151265 638,450 C 637.3136172245698,460.8107130848735 658.1967587363381,476.51852363529144 697,468 C 735.8032412636619,459.48147636470856 792.5265822792172,426.7366185437077 798,419 C 803.4734177207828,411.2633814562923 757.6969121467932,428.53500218987784 776,443 C 794.3030878532068,457.46499781012216 876.68576913361,469.123372696781 908,478 C 939.31423086639,486.876627303219 919.5600113187662,492.9715070229979 948,477 C 976.4399886812338,461.0284929770021 1053.0741855913245,422.9905992112274 1071,426 C 1088.9258144086755,429.0094007887726 1048.1432463159356,473.06609613209224 1041,475 C 1033.8567536840644,476.93390386790776 1060.3528291449325,436.74501626040353 1092,426 C 1123.6471708550675,415.25498373959647 1160.4454371043348,433.9538388262937 1185,435 C 1209.5545628956652,436.0461611737063 1221.8654224377285,419.4396284344215 1240,428 C 1258.1345775622715,436.5603715655785 1282.09287314475,470.28764743602056 1326,468 C 1369.90712685525,465.71235256397944 1433.7630849832717,427.4097818214963 1451,420 C 1468.2369150167283,412.5902181785037 1438.8547869221632,436.07322527799414 1459,452 C 1479.1452130778368,467.92677472200586 1548.8177673280754,476.2973170665271 1593,480 C 1637.1822326719246,483.7026829334729 1655.8741437655342,482.7375064558973 1647,483 C 1638.1258562344658,483.2624935441027 1601.6856576097878,484.75265710988384 1630,480 C 1658.3143423902122,475.24734289011616 1751.383225795315,464.25186510456723 1794,466 C 1836.616774204685,467.74813489543277 1828.7814392089535,482.2398824718473 1813,476 C 1797.2185607910465,469.7601175281527 1773.4910173688702,442.7886050080436 1790,435 C 1806.5089826311298,427.2113949919564 1863.2544913155648,438.60569749597823 1920,450 C 1920,450 1920,1080 1920,1080 Z" fill="#3d1053" opacity="0.24999999999999997"/><path d="M 0,1080 C 0,1080 0,540 0,540 C -4.009287652557608,545.0283006268526 -8.018575305115217,550.0566012537053 6,552 C 20.018575305115217,553.9433987462947 52.065013567903264,552.8018956120316 84,548 C 115.93498643209674,543.1981043879684 147.75852103350212,534.7358162981681 175,529 C 202.24147896649788,523.2641837018319 224.90090229808823,520.2548391952957 234,533 C 243.09909770191177,545.7451608047043 238.63786977414497,574.2448269206491 258,573 C 277.362130225855,571.7551730793509 320.5476186053319,540.7658531221083 373,536 C 425.4523813946681,531.2341468778917 487.1716558045272,552.6917605909179 503,562 C 518.8283441954728,571.3082394090821 488.7657581765592,568.4671045142202 502,562 C 515.2342418234408,555.5328954857798 571.7653114892358,545.4398213522014 611,536 C 650.2346885107642,526.5601786477986 672.1729958664972,517.7736100769743 686,515 C 699.8270041335028,512.2263899230257 705.5427050447753,515.4657383399018 694,519 C 682.4572949552247,522.5342616600982 653.6561839544019,526.3634365634185 698,523 C 742.3438160455981,519.6365634365815 859.8325591376174,509.08051540642373 892,514 C 924.1674408623826,518.9194845935763 871.0135794951286,539.3145018108864 852,545 C 832.9864205048714,550.6854981891136 848.1131228818675,541.6614773500303 903,532 C 957.8868771181325,522.3385226499697 1052.5339289774013,512.0395887889921 1068,513 C 1083.4660710225987,513.9604112110079 1019.7511612085269,526.180167494001 1016,533 C 1012.2488387914731,539.819832505999 1068.461426188491,541.2397412350037 1095,542 C 1121.538573811509,542.7602587649963 1118.40313403751,542.8608675659841 1157,533 C 1195.59686596249,523.1391324340159 1275.9260376614689,503.31678850106005 1324,511 C 1372.0739623385311,518.68321149894 1387.892715316615,553.8719784297755 1398,571 C 1408.107284683385,588.1280215702245 1412.5031010720706,587.1952977798381 1416,568 C 1419.4968989279294,548.8047022201619 1422.094880395101,511.34683045087183 1428,510 C 1433.905119604899,508.65316954912817 1443.1173773475243,543.4173804166743 1479,553 C 1514.8826226524757,562.5826195833257 1577.4356102148013,546.9836478824307 1611,538 C 1644.5643897851987,529.0163521175693 1649.1401817932713,526.6480280536028 1666,518 C 1682.8598182067287,509.35197194639716 1712.003662612113,494.42423990315797 1725,509 C 1737.996337387887,523.575760096842 1734.845167758277,567.6550123337652 1770,570 C 1805.154832241723,572.3449876662348 1878.6156663547779,532.9557107617813 1910,521 C 1941.3843336452221,509.04428923821865 1930.692166822611,524.5221446191093 1920,540 C 1920,540 1920,1080 1920,1080 Z" fill="#3d1053" opacity="0.3"/><path d="M 0,1080 C 0,1080 0,630 0,630 C -20.51730362933762,641.2736662007056 -41.03460725867524,652.5473324014113 3,642 C 47.03460725867524,631.4526675985887 155.62112540536333,599.0843365950604 178,606 C 200.37887459463667,612.9156634049396 136.55010563722192,659.1153212183468 157,660 C 177.44989436277808,660.8846787816532 282.17845204574905,616.4543785315525 310,613 C 337.82154795425095,609.5456214684475 288.73608617978186,647.0671646554433 276,662 C 263.26391382021814,676.9328353445567 286.8772032351236,669.2769628466745 315,654 C 343.1227967648764,638.7230371533255 375.75510087972356,615.8249839578591 426,618 C 476.24489912027644,620.1750160421409 544.102393245982,647.4231013218895 576,652 C 607.897606754018,656.5768986781105 603.835326136348,638.4826107545832 589,630 C 574.164673863652,621.5173892454168 548.5563022086258,622.646455659778 586,618 C 623.4436977913742,613.353544340222 723.9394650291493,602.931566606305 759,605 C 794.0605349708507,607.068433393695 763.6858376747768,621.627277915002 764,624 C 764.3141623252232,626.372722084998 795.3171842717433,616.5593217336873 821,619 C 846.6828157282567,621.4406782663127 867.0454252382499,636.1354351502489 881,645 C 894.9545747617501,653.8645648497511 902.5011147752575,656.8989376653172 941,645 C 979.4988852247425,633.1010623346828 1048.9501156607203,606.2688141884819 1056,596 C 1063.0498843392797,585.7311858115181 1007.698422581861,592.0258055807551 1027,608 C 1046.301577418139,623.9741944192449 1140.256194011836,649.6279634884977 1180,644 C 1219.743805988164,638.3720365115023 1205.276801370796,601.4623404652539 1211,605 C 1216.723198629204,608.5376595347461 1242.63660050498,652.5226746504864 1260,652 C 1277.36339949502,651.4773253495136 1286.1767966092834,606.4469609328006 1306,599 C 1325.8232033907166,591.5530390671994 1356.6562130578861,621.6894816183107 1387,630 C 1417.3437869421139,638.3105183816893 1447.1983511591718,624.7951125939564 1470,621 C 1492.8016488408282,617.2048874060436 1508.5503823054262,623.1300680058637 1552,621 C 1595.4496176945738,618.8699319941363 1666.6001196191235,608.6846153825886 1663,607 C 1659.3998803808765,605.3153846174114 1581.0491392180802,612.1314704637815 1598,626 C 1614.9508607819198,639.8685295362185 1727.203323508556,660.7895027622853 1769,660 C 1810.796676491444,659.2104972377147 1782.1375667476964,636.710518487077 1784,632 C 1785.8624332523036,627.289481512923 1818.246409500658,640.3684232894066 1846,643 C 1873.753590499342,645.6315767105934 1896.876795249671,637.8157883552967 1920,630 C 1920,630 1920,1080 1920,1080 Z" fill="#3d1053" opacity="0.35"/><path d="M 0,1080 C 0,1080 0,720 0,720 C 14.233359924081885,714.0151096355148 28.46671984816377,708.0302192710298 32,709 C 35.53328015183623,709.9697807289702 28.366480531426802,717.8942325513959 56,716 C 83.6335194685732,714.1057674486041 146.06735802612906,702.3928505233868 196,694 C 245.93264197387094,685.6071494766132 283.36408736405696,680.5343653550569 312,694 C 340.63591263594304,707.4656346449431 360.4762925176431,739.4696880563856 360,735 C 359.5237074823569,730.5303119436144 338.73074256537086,689.5868824194009 345,692 C 351.26925743462914,694.4131175805991 384.60073722087355,740.1827822660107 439,749 C 493.39926277912645,757.8172177339893 568.8663085511354,729.6819885165564 578,723 C 587.1336914488646,716.3180114834436 529.934028574585,731.0892636677636 525,728 C 520.065971425415,724.9107363322364 567.3975771505249,703.9609568123891 615,708 C 662.6024228494751,712.0390431876109 710.4756628233157,741.0669090826799 735,744 C 759.5243371766843,746.9330909173201 760.6997715562123,723.771406856891 754,711 C 747.3002284437877,698.228593143109 732.725250951835,695.8474634897567 761,710 C 789.274749048165,724.1525365102433 860.3992246364479,754.8387391840827 884,753 C 907.6007753635521,751.1612608159173 883.6778505023731,716.7975797739123 908,713 C 932.3221494976269,709.2024202260877 1004.8893733540601,735.9709417202682 1035,731 C 1065.1106266459399,726.0290582797318 1052.7646560813862,689.3186533450142 1069,687 C 1085.2353439186138,684.6813466549858 1130.0520023203944,716.7544448996745 1176,729 C 1221.9479976796056,741.2455551003255 1269.0273346370361,733.6635670562878 1278,731 C 1286.9726653629639,728.3364329437122 1257.8386591314613,730.5912868751736 1278,726 C 1298.1613408685387,721.4087131248264 1367.618028837119,709.9712854430173 1408,720 C 1448.381971162881,730.0287145569827 1459.6892255200626,761.5235713527574 1477,751 C 1494.3107744799374,740.4764286472426 1517.6250690826298,687.9344291459529 1539,686 C 1560.3749309173702,684.0655708540471 1579.8104981494182,732.7387120634307 1589,748 C 1598.1895018505818,763.2612879365693 1597.1329383196971,745.1107226003243 1604,729 C 1610.8670616803029,712.8892773996757 1625.657748571794,698.8183975352723 1663,705 C 1700.342251428206,711.1816024647277 1760.2360673931273,737.6156872585867 1796,743 C 1831.7639326068727,748.3843127414133 1843.3979818556966,732.7188534303806 1832,728 C 1820.6020181443034,723.2811465696194 1786.1720051840866,729.5088990198913 1797,730 C 1807.8279948159134,730.4911009801087 1863.9139974079567,725.2455504900544 1920,720 C 1920,720 1920,1080 1920,1080 Z" fill="#3d1053" opacity="0.39999999999999997"/><path d="M 0,1080 C 0,1080 0,810 0,810 C -15.00122971109585,799.3703601621032 -30.0024594221917,788.7407203242066 7,787 C 44.0024594221917,785.2592796757934 133.00860797767095,792.4074788652767 168,802 C 202.99139202232905,811.5925211347233 183.96802751150787,823.6293642146862 205,817 C 226.03197248849213,810.3706357853138 287.11928197629754,785.0750642759781 327,777 C 366.88071802370246,768.9249357240219 385.5548445833021,778.0703786814014 381,777 C 376.4451554166979,775.9296213185986 348.6613396904941,764.6434209984169 349,777 C 349.3386603095059,789.3565790015831 377.7997966547216,825.355937324931 437,823 C 496.2002033452784,820.644062675069 586.1394736906194,779.9328297018592 583,782 C 579.8605263093806,784.0671702981408 483.642308582801,828.9127438676321 504,840 C 524.357691417199,851.0872561323679 661.2912919781771,828.4161948276125 703,824 C 744.7087080218229,819.5838051723875 691.1925235044904,833.4224768219185 675,830 C 658.8074764955096,826.5775231780815 679.9386140038611,805.8938978847135 719,797 C 758.0613859961389,788.1061021152865 815.0530204800656,791.0019316392277 834,800 C 852.9469795199344,808.9980683607723 833.8493040758766,824.098375558376 859,835 C 884.1506959241234,845.901624441624 953.5497632164282,852.6045661272681 985,841 C 1016.4502367835718,829.3954338727319 1009.9516430584104,799.4833599325515 1008,791 C 1006.0483569415896,782.5166400674485 1008.6436645499302,795.461994142526 1026,811 C 1043.3563354500698,826.538005857474 1075.4736987418687,844.6686634973444 1118,833 C 1160.5263012581313,821.3313365026556 1213.461540482595,779.8633518680962 1253,776 C 1292.538459517405,772.1366481319038 1318.6801393277506,805.8779290302705 1341,815 C 1363.3198606722494,824.1220709697295 1381.8179022064023,808.6249320108216 1376,798 C 1370.1820977935977,787.3750679891784 1340.0482518466397,781.6223429264427 1363,786 C 1385.9517481533603,790.3776570735573 1461.9890904070385,804.8856962834074 1476,820 C 1490.0109095929615,835.1143037165926 1441.9953865252064,850.8348719399279 1474,842 C 1506.0046134747936,833.1651280600721 1618.0293634921354,799.7748159568808 1668,785 C 1717.9706365078646,770.2251840431192 1705.8871595062508,774.0658642325485 1684,784 C 1662.1128404937492,793.9341357674515 1630.4219984828605,809.961727112925 1658,806 C 1685.5780015171395,802.038272887075 1772.4248465623068,778.087227315751 1820,786 C 1867.5751534376932,793.912772684249 1875.8786152679122,833.6893636240711 1886,843 C 1896.1213847320878,852.3106363759289 1908.060692366044,831.1553181879644 1920,810 C 1920,810 1920,1080 1920,1080 Z" fill="#3d1053" opacity="0.44999999999999996"/><path d="M 0,1080 C 0,1080 0,900 0,900 C 34.31935788088637,889.2899273309266 68.63871576177274,878.5798546618532 106,891 C 143.36128423822726,903.4201453381468 183.76449483379545,938.9705086835139 175,933 C 166.23550516620455,927.0294913164861 108.30330490304544,879.5381106040908 122,871 C 135.69669509695456,862.4618893959092 221.0222855540227,892.877048900123 266,898 C 310.9777144459773,903.122951099877 315.60755288086403,882.9536937954173 328,888 C 340.39244711913597,893.0463062045827 360.5475029225213,923.308175918208 393,929 C 425.4524970774787,934.691824081792 470.2024354290505,915.813602531751 499,918 C 527.7975645709495,920.186397468249 540.6427553612766,943.4374139547878 558,933 C 575.3572446387234,922.5625860452122 597.226543125843,878.4367416490979 607,866 C 616.773456874157,853.5632583509021 614.4510721353512,872.8156194488203 612,881 C 609.5489278646488,889.1843805511797 606.9691683327522,886.3007805556213 647,886 C 687.0308316672478,885.6992194443787 769.6722545336398,887.9812583286946 818,890 C 866.3277454663602,892.0187416713054 880.3418135326881,893.7741861296005 873,893 C 865.6581864673119,892.2258138703995 836.960491335608,888.9219971529035 861,895 C 885.039508664392,901.0780028470965 961.81622112488,916.5378252587856 1005,911 C 1048.18377887512,905.4621747412144 1057.7746241648717,878.926701811954 1077,877 C 1096.2253758351283,875.073298188046 1125.0852822156319,897.7553674933977 1153,910 C 1180.9147177843681,922.2446325066023 1207.8842469726003,924.051828214456 1212,916 C 1216.1157530273997,907.948171785544 1197.3777298939667,890.0373196487782 1222,893 C 1246.6222701060333,895.9626803512218 1314.6048334515324,919.7988931904308 1339,925 C 1363.3951665484676,930.2011068095692 1344.202936299903,916.7671075894981 1338,902 C 1331.797063700097,887.2328924105019 1338.5834213488554,871.1326764515763 1359,881 C 1379.4165786511446,890.8673235484237 1413.463378304675,926.7021866041958 1462,932 C 1510.536621695325,937.2978133958042 1573.5630654324443,912.0585771316405 1590,903 C 1606.4369345675557,893.9414228683595 1576.2843599655475,901.0635048692423 1580,903 C 1583.7156400344525,904.9364951307577 1621.2994947053644,901.6874033913908 1658,898 C 1694.7005052946356,894.3125966086092 1730.5176612129947,890.1868815651941 1747,888 C 1763.4823387870053,885.8131184348059 1760.6298604426552,885.5650703478323 1774,896 C 1787.3701395573448,906.4349296521677 1816.962897016384,927.5528370434764 1844,930 C 1871.037102983616,932.4471629565236 1895.518551491808,916.2235814782618 1920,900 C 1920,900 1920,1080 1920,1080 Z" fill="#3d1053" opacity="0.49999999999999994"/><path d="M 0,1080 C 0,1080 0,990 0,990 C 51.18880284322323,976.1298021220032 102.37760568644646,962.2596042440063 112,975 C 121.62239431355354,987.7403957559937 89.6783800974374,1027.0913851459782 105,1021 C 120.3216199025626,1014.908614854022 182.90887392380398,963.3748551720815 215,964 C 247.09112607619602,964.6251448279185 248.68612420734672,1017.4091941656959 245,1022 C 241.31387579265328,1026.590805834304 232.34662924680913,982.9883681651339 251,980 C 269.65337075319087,977.0116318348661 315.92735880541693,1014.6373331737681 354,1017 C 392.07264119458307,1019.3626668262319 421.9439355315234,986.4622991397937 457,972 C 492.0560644684766,957.5377008602063 532.2968990684896,961.5134702670571 570,974 C 607.7031009315104,986.4865297329429 642.8684681945182,1007.4838197919778 637,1004 C 631.1315318054818,1000.5161802080222 584.2292281534377,972.5512505650319 578,972 C 571.7707718465623,971.4487494349681 606.2146191917307,998.3111779478954 633,1002 C 659.7853808082693,1005.6888220521046 678.9122950796394,986.204037643386 724,983 C 769.0877049203606,979.795962356614 840.1362004897119,992.8726714785605 892,996 C 943.8637995102881,999.1273285214395 976.5429029615136,992.3052764423717 962,982 C 947.4570970384864,971.6947235576283 885.6921876642334,957.9062227519528 916,969 C 946.3078123357666,980.0937772480472 1068.6883463815527,1016.0698325498175 1092,1018 C 1115.3116536184473,1019.9301674501825 1039.5544268095553,987.8144470487766 1044,974 C 1048.4455731904447,960.1855529512234 1133.0939463802258,964.6723792550757 1170,964 C 1206.9060536197742,963.3276207449243 1196.0697876695413,957.4960359309201 1203,965 C 1209.9302123304587,972.5039640690799 1234.6269029416094,993.3434770212439 1269,1003 C 1303.3730970583906,1012.6565229787561 1347.4226005640207,1011.130055984105 1391,998 C 1434.5773994359793,984.869944015895 1477.682694802307,960.136299042336 1478,961 C 1478.317305197693,961.863700957664 1435.8466202267507,988.3247478465505 1445,1000 C 1454.1533797732493,1011.6752521534495 1514.9308242906902,1008.5647095714618 1568,1004 C 1621.0691757093098,999.4352904285382 1666.4300826104884,993.4164138676022 1663,993 C 1659.5699173895116,992.5835861323978 1607.3488452673553,997.7696349581287 1604,990 C 1600.6511547326447,982.2303650418713 1646.1745363200903,961.505046299883 1670,967 C 1693.8254636799097,972.494953700117 1695.9530094522834,1004.2101798423391 1724,1006 C 1752.0469905477166,1007.7898201576609 1806.0134258707762,979.6542343307601 1843,972 C 1879.9865741292238,964.3457656692399 1899.9932870646119,977.1728828346199 1920,990 C 1920,990 1920,1080 1920,1080 Z" fill="#3d1053" opacity="0.5499999999999999"/></svg>